REM DIRINDEX 1\3,1\4,1\5,1\6,1\2\7,1\2\8,1\2\9,1\10
REM DIRNAME cjc056,folder01,folder02,folder03,folder04,folder05,folder06,folder07,folder08,folder09
TITLE ""
FILE "2-01 Level 4-526-537.mp3" MP3
  TRACK 01 AUDIO
    TITLE "0:"
    INDEX 01 00:00:00
  TRACK 02 AUDIO
    TITLE "10:cjc056_1846"
    INDEX 01 00:00:03
  TRACK 03 AUDIO
    TITLE "0:"
    INDEX 01 00:01:34
  TRACK 04 AUDIO
    TITLE "7:cjc056_1847"
    INDEX 01 00:02:08
  TRACK 05 AUDIO
    TITLE "0:"
    INDEX 01 00:03:00
  TRACK 06 AUDIO
    TITLE "8:cjc056_1848"
    INDEX 01 00:03:14
  TRACK 07 AUDIO
    TITLE "0:"
    INDEX 01 00:04:29
  TRACK 08 AUDIO
    TITLE "9:cjc056_1849"
    INDEX 01 00:04:42
  TRACK 09 AUDIO
    TITLE "0:"
    INDEX 01 00:06:10
  TRACK 10 AUDIO
    TITLE "7:cjc056_1850"
    INDEX 01 00:06:61
  TRACK 11 AUDIO
    TITLE "0:"
    INDEX 01 00:08:01
  TRACK 12 AUDIO
    TITLE "8:cjc056_1851"
    INDEX 01 00:08:15
  TRACK 13 AUDIO
    TITLE "0:"
    INDEX 01 00:09:34
  TRACK 14 AUDIO
    TITLE "9:cjc056_1852"
    INDEX 01 00:09:47
  TRACK 15 AUDIO
    TITLE "0:"
    INDEX 01 00:13:22
  TRACK 16 AUDIO
    TITLE "7:cjc056_1853"
    INDEX 01 00:13:67
  TRACK 17 AUDIO
    TITLE "0:"
    INDEX 01 00:15:05
  TRACK 18 AUDIO
    TITLE "8:cjc056_1854"
    INDEX 01 00:15:17
  TRACK 19 AUDIO
    TITLE "0:"
    INDEX 01 00:16:10
  TRACK 20 AUDIO
    TITLE "9:cjc056_1855"
    INDEX 01 00:16:18
  TRACK 21 AUDIO
    TITLE "0:"
    INDEX 01 00:17:55
  TRACK 22 AUDIO
    TITLE "7:cjc056_1856"
    INDEX 01 00:18:31
  TRACK 23 AUDIO
    TITLE "0:"
    INDEX 01 00:19:34
  TRACK 24 AUDIO
    TITLE "8:cjc056_1857"
    INDEX 01 00:19:50
  TRACK 25 AUDIO
    TITLE "0:"
    INDEX 01 00:20:67
  TRACK 26 AUDIO
    TITLE "9:cjc056_1858"
    INDEX 01 00:21:06
  TRACK 27 AUDIO
    TITLE "0:"
    INDEX 01 00:22:58
  TRACK 28 AUDIO
    TITLE "7:cjc056_1859"
    INDEX 01 00:23:36
  TRACK 29 AUDIO
    TITLE "0:"
    INDEX 01 00:24:31
  TRACK 30 AUDIO
    TITLE "8:cjc056_1860"
    INDEX 01 00:24:47
  TRACK 31 AUDIO
    TITLE "0:"
    INDEX 01 00:25:66
  TRACK 32 AUDIO
    TITLE "9:cjc056_1861"
    INDEX 01 00:26:05
  TRACK 33 AUDIO
    TITLE "0:"
    INDEX 01 00:27:51
  TRACK 34 AUDIO
    TITLE "7:cjc056_1862"
    INDEX 01 00:28:27
  TRACK 35 AUDIO
    TITLE "0:"
    INDEX 01 00:29:23
  TRACK 36 AUDIO
    TITLE "8:cjc056_1863"
    INDEX 01 00:29:38
  TRACK 37 AUDIO
    TITLE "0:"
    INDEX 01 00:30:55
  TRACK 38 AUDIO
    TITLE "9:cjc056_1864"
    INDEX 01 00:30:63
  TRACK 39 AUDIO
    TITLE "0:"
    INDEX 01 00:33:50
  TRACK 40 AUDIO
    TITLE "7:cjc056_1865"
    INDEX 01 00:34:20
  TRACK 41 AUDIO
    TITLE "0:"
    INDEX 01 00:35:35
  TRACK 42 AUDIO
    TITLE "8:cjc056_1866"
    INDEX 01 00:35:51
  TRACK 43 AUDIO
    TITLE "0:"
    INDEX 01 00:36:66
  TRACK 44 AUDIO
    TITLE "9:cjc056_1867"
    INDEX 01 00:37:05
  TRACK 45 AUDIO
    TITLE "0:"
    INDEX 01 00:38:51
  TRACK 46 AUDIO
    TITLE "7:cjc056_1868"
    INDEX 01 00:39:27
  TRACK 47 AUDIO
    TITLE "0:"
    INDEX 01 00:40:32
  TRACK 48 AUDIO
    TITLE "8:cjc056_1869"
    INDEX 01 00:40:48
  TRACK 49 AUDIO
    TITLE "0:"
    INDEX 01 00:41:53
  TRACK 50 AUDIO
    TITLE "9:cjc056_1870"
    INDEX 01 00:41:67
  TRACK 51 AUDIO
    TITLE "0:"
    INDEX 01 00:43:46
  TRACK 52 AUDIO
    TITLE "7:cjc056_1871"
    INDEX 01 00:44:22
  TRACK 53 AUDIO
    TITLE "0:"
    INDEX 01 00:45:16
  TRACK 54 AUDIO
    TITLE "8:cjc056_1872"
    INDEX 01 00:45:28
  TRACK 55 AUDIO
    TITLE "0:"
    INDEX 01 00:46:19
  TRACK 56 AUDIO
    TITLE "9:cjc056_1873"
    INDEX 01 00:46:27
  TRACK 57 AUDIO
    TITLE "0:"
    INDEX 01 00:48:44
  TRACK 58 AUDIO
    TITLE "8:cjc056_1874"
    INDEX 01 00:48:71
  TRACK 59 AUDIO
    TITLE "0:"
    INDEX 01 00:49:69
  TRACK 60 AUDIO
    TITLE "9:cjc056_1875"
    INDEX 01 00:50:05
  TRACK 61 AUDIO
    TITLE "0:"
    INDEX 01 00:51:56
  TRACK 62 AUDIO
    TITLE "7:cjc056_1876"
    INDEX 01 00:52:32
  TRACK 63 AUDIO
    TITLE "0:"
    INDEX 01 00:53:45
  TRACK 64 AUDIO
    TITLE "8:cjc056_1877"
    INDEX 01 00:53:58
  TRACK 65 AUDIO
    TITLE "0:"
    INDEX 01 00:54:74
  TRACK 66 AUDIO
    TITLE "9:cjc056_1878"
    INDEX 01 00:55:10
  TRACK 67 AUDIO
    TITLE "0:"
    INDEX 01 00:57:41
  TRACK 68 AUDIO
    TITLE "7:cjc056_1879"
    INDEX 01 00:58:18
  TRACK 69 AUDIO
    TITLE "0:"
    INDEX 01 00:59:38
  TRACK 70 AUDIO
    TITLE "8:cjc056_1880"
    INDEX 01 00:59:53
  TRACK 71 AUDIO
    TITLE "0:"
    INDEX 01 01:00:68
  TRACK 72 AUDIO
    TITLE "9:cjc056_1881"
    INDEX 01 01:01:07
  TRACK 73 AUDIO
    TITLE "0:"
    INDEX 01 01:03:26
  TRACK 74 AUDIO
    TITLE "7:cjc056_1882"
    INDEX 01 01:04:03
  TRACK 75 AUDIO
    TITLE "0:"
    INDEX 01 01:05:28
  TRACK 76 AUDIO
    TITLE "8:cjc056_1883"
    INDEX 01 01:05:38
  TRACK 77 AUDIO
    TITLE "0:"
    INDEX 01 01:06:55
  TRACK 78 AUDIO
    TITLE "9:cjc056_1884"
    INDEX 01 01:06:67
  TRACK 79 AUDIO
    TITLE "0:"
    INDEX 01 01:09:54
